<svg width="60" height="60" viewBox="0 0 60 60" fill="none" xmlns="http://www.w3.org/2000/svg">
<path d="M35.7967 6.26244C32.6285 5.89289 29.6222 7.75082 28.536 10.7497C28.2913 11.4256 28.2052 12.1563 28.165 12.9222C28.1348 13.5 28.1273 14.1888 28.1258 15L28.125 16.1375C28.125 16.1495 28.125 16.1615 28.125 16.1734V36.3397C26.0007 34.346 23.143 33.125 20 33.125C13.4416 33.125 8.125 38.4415 8.125 45C8.125 51.5585 13.4416 56.875 20 56.875C26.5585 56.875 31.875 51.5585 31.875 45V23.0265C32.137 23.1661 32.4207 23.3079 32.7318 23.4632L39.5005 26.8475C40.5462 27.3702 41.3972 27.7957 42.0945 28.0997C42.7975 28.4062 43.4895 28.6562 44.2035 28.7395C47.3715 29.109 50.3778 27.251 51.464 24.2522C51.709 23.5764 51.7948 22.8456 51.8353 22.0797C51.875 21.3201 51.875 20.3688 51.875 19.1997L51.8752 18.9926C51.8755 18.1232 51.8758 17.4431 51.7525 16.7986C51.435 15.1396 50.5177 13.6556 49.176 12.6296C48.6545 12.231 48.0462 11.9272 47.2685 11.5387L40.4997 8.15447C39.454 7.63159 38.603 7.20609 37.9058 6.90214C37.2028 6.59564 36.5107 6.34572 35.7967 6.26244Z" fill="#9B9B9B"/>
</svg>
