<svg width="26" height="24" viewBox="0 0 26 24" fill="none" xmlns="http://www.w3.org/2000/svg">
<path d="M8.4651 3.42627H5.89534L0 13.1511L6.09689 23.3797H13.9573L17.1318 18.0386L8.4651 3.42627Z" fill="#181797"/>
<path d="M14.7636 3.32568L4.38379 20.5078L6.09696 23.3799H13.9574L26 3.32568H23.531L22.2713 5.59312L21.0117 3.32568H14.7636Z" fill="#0056A6" fill-opacity="0.57"/>
<path d="M22.221 2.92236L20.9555 0.730507L23.4865 0.730507L22.221 2.92236Z" fill="#6B9ECC"/>
<path d="M24.8411 2.41895L24.4483 1.73871L25.2338 1.73871L24.8411 2.41895Z" fill="#6B9ECC"/>
<path d="M17.1317 18.0388L11.5387 8.61637L14.7635 3.32568H21.0115L22.2712 5.59312L23.5309 3.32568H25.9999L17.1317 18.0388Z" fill="#6B9ECC"/>
<path d="M18.2907 6.4502L17.8107 5.6188L18.7707 5.6188L18.2907 6.4502Z" fill="white"/>
<path d="M19.8526 2.92236L19.329 2.01539L20.3763 2.01539L19.8526 2.92236Z" fill="#6B9ECC"/>
</svg>
