<svg width="11.3" height="11.3" viewBox="0 0 13 13" fill="none" xmlns="http://www.w3.org/2000/svg">
<path fill-rule="evenodd" clip-rule="evenodd" d="M2.77778 0C2.50164 0 2.27778 0.223858 2.27778 0.5C2.27778 0.776142 2.50164 1 2.77778 1H9.03704C10.4177 1 11.537 2.11929 11.537 3.5V9.75926C11.537 10.0354 11.7609 10.2593 12.037 10.2593C12.3132 10.2593 12.537 10.0354 12.537 9.75926V3.5C12.537 1.567 10.97 0 9.03704 0H2.77778ZM2 2.42593H9.11111C9.6634 2.42593 10.1111 2.87364 10.1111 3.42593V10.537C10.1111 11.0893 9.6634 11.537 9.11111 11.537H2C1.44772 11.537 1 11.0893 1 10.537V3.42593C1 2.87364 1.44771 2.42593 2 2.42593ZM0 3.42593C0 2.32136 0.895431 1.42593 2 1.42593H9.11111C10.2157 1.42593 11.1111 2.32136 11.1111 3.42593V10.537C11.1111 11.6416 10.2157 12.537 9.11111 12.537H2C0.89543 12.537 0 11.6416 0 10.537V3.42593Z" fill="#747474"/>
</svg>
