<svg width="13" height="13" viewBox="0 0 13 13" fill="none" xmlns="http://www.w3.org/2000/svg">
<path fill-rule="evenodd" clip-rule="evenodd" d="M0.435616 0C0.195034 0 0 0.195034 0 0.435616C0 0.676197 0.195034 0.871231 0.435616 0.871231H1.59726V5.37259C1.59726 7.15228 1.59726 8.04216 2.18052 8.59504C2.76378 9.14793 3.70253 9.14793 5.58 9.14793H5.80821V11.202L4.88737 11.6624C4.67219 11.77 4.58496 12.0316 4.69255 12.2468C4.80015 12.462 5.06181 12.5493 5.27699 12.4416L6.24382 11.9582L7.21066 12.4416C7.42585 12.5493 7.68751 12.462 7.79508 12.2468C7.9027 12.0316 7.81546 11.77 7.60027 11.6624L6.67944 11.202V9.14793H6.90764C8.78509 9.14793 9.72387 9.14793 10.3071 8.59504C10.8904 8.04216 10.8904 7.15228 10.8904 5.37259V0.871231H12.052C12.2926 0.871231 12.4876 0.676197 12.4876 0.435616C12.4876 0.195034 12.2926 0 12.052 0H0.435616ZM8.29429 3.90292C8.46442 4.07304 8.46442 4.34886 8.29429 4.51898L7.52924 5.28407C7.44502 5.36835 7.35394 5.45948 7.26676 5.52604C7.16454 5.60399 7.01835 5.68792 6.82464 5.68792C6.63094 5.68792 6.48475 5.60399 6.38252 5.52604C6.29534 5.45948 6.20427 5.36835 6.12005 5.28407L5.76569 4.92968C5.72498 4.88899 5.69198 4.85602 5.663 4.82795C5.63402 4.85602 5.60103 4.88899 5.56031 4.92968L4.80939 5.6806C4.63927 5.85072 4.36345 5.85072 4.19333 5.6806C4.02322 5.51048 4.02322 5.2347 4.19333 5.06457L4.95841 4.29947C5.04263 4.2152 5.1337 4.12407 5.22088 4.05752C5.32311 3.97956 5.4693 3.89563 5.663 3.89563C5.85671 3.89563 6.0029 3.97956 6.10512 4.05752C6.1923 4.12407 6.28338 4.21518 6.36754 4.29944L6.72195 4.65386C6.76267 4.69455 6.79566 4.72753 6.82464 4.75559C6.85363 4.72753 6.88662 4.69455 6.92733 4.65386L7.67828 3.90292C7.8484 3.73281 8.12417 3.73281 8.29429 3.90292Z" fill="white"/>
</svg>
